# xmcd CD database file
#
# Track frame offsets:
#	150
#	9613
#	32520
#	50670
#	75505
#	89630
#	99933
#	126585
#	132375
#	142965
#	184275
#	194090
#	198243
#	208678
#	224508
#	241565
#
# Disc length: 3515 seconds
#
# Revision: 3
# Processed by: cddbd v1.5.1PL0 Copyright (c) Steve Scherf et al.
# Submitted via: CDex 1.51
#
DISCID=ea0db910
DTITLE=James Brown and The Soul G's - Live at Chastain Park
DYEAR=1988
DGENRE=Funk
TTITLE0=Give It Up or Turnit a Loose
TTITLE1=It's Too Funky in Here
TTITLE2=Doing It to Death
TTITLE3=Try Me
TTITLE4=Get On the Good Foot
TTITLE5=Get Up Offa that Thing
TTITLE6=Georgia On My Mind
TTITLE7=Hot Pants
TTITLE8=I Got the Feelin'
TTITLE9=It's a Man's, Man's, Man's World
TTITLE10=Cold Sweat
TTITLE11=I Can't Stand Myself (When You Touch Me)
TTITLE12=Papa's Got a Brand New Bag
TTITLE13=I Got You (I Feel Good)
TTITLE14=Please, Please, Please
TTITLE15=Jam
EXTD=YEAR: 1988
EXTT0=
EXTT1=
EXTT2=
EXTT3=
EXTT4=
EXTT5=
EXTT6=
EXTT7=
EXTT8=
EXTT9=
EXTT10=
EXTT11=
EXTT12=
EXTT13=
EXTT14=
EXTT15=
PLAYORDER=
